<svg xmlns="http://www.w3.org/2000/svg" version="1.1" xmlns:xlink="http://www.w3.org/1999/xlink" xmlns:svgjs="http://svgjs.dev/svgjs" width="2000" height="2007" viewBox="0 0 2000 2007"><g transform="matrix(1,0,0,1,0,-3.5709918845356015)"><svg viewBox="0 0 280 281" data-background-color="#ffffff" preserveAspectRatio="xMidYMid meet" height="2007" width="2000" xmlns="http://www.w3.org/2000/svg" xmlns:xlink="http://www.w3.org/1999/xlink"><g id="tight-bounds" transform="matrix(1,0,0,1,0,0.5000255507949589)"><svg viewBox="0 0 280 280" height="280" width="280"><g><svg viewBox="0 0 280 280" height="280" width="280"><g><svg viewBox="0 0 280 280" height="280" width="280"><g id="textblocktransform"><svg viewBox="0 0 280 280" height="280" width="280" id="textblock"><g><svg viewBox="0 0 280 280" height="280" width="280"><g transform="matrix(1,0,0,1,57.50420886156945,57.50420886156945)"><svg viewBox="0 0 164.9915822768611 164.9915822768611" height="164.9915822768611" width="164.9915822768611"><g id="icon-0"><circle r="82" cx="82.49579113843055" cy="82.49579113843055" fill="#8789fe" data-fill-palette-color="accent"></circle><svg version="1.0" xmlns="http://www.w3.org/2000/svg" xmlns:xlink="http://www.w3.org/1999/xlink" x="24.74873734152917" y="24.748737341529164" viewBox="0 0 95.471 100" enable-background="new 0 0 95.471 100" xml:space="preserve" id="jxe-0" width="115.49410759380275" height="115.49410759380275" class="icon-jxe-0" data-fill-palette-color="quaternary"><path d="M47.735 0C47.652 2.825 45.997 13.412 27.936 30.934 10.554 47.797 2.439 49.824 0 50 2.439 50.178 10.554 52.204 27.936 69.066 45.997 86.589 47.652 97.177 47.735 100 47.818 97.177 49.474 86.589 67.533 69.066 84.917 52.204 93.031 50.178 95.471 50 93.032 49.824 84.917 47.797 67.533 30.934 49.475 13.412 47.819 2.825 47.735 0" fill="#ffffff" data-fill-palette-color="quaternary"></path></svg></g></svg></g><g id="text-0"><path d="M14.076 80.713c0.187-0.496 0.435-0.807 0.745-0.931 0.305-0.133 0.728-0.098 1.267 0.106v0c0.546 0.206 0.89 0.46 1.032 0.761 0.15 0.298 0.132 0.695-0.056 1.191v0l-0.505 1.34 5.423 12.549c0.032-0.123 0.091-0.299 0.178-0.529v0c0.723-1.918 2.032-3.171 3.927-3.761v0c0.754-0.233 1.563-0.385 2.426-0.457 0.861-0.065 1.918-0.096 3.171-0.091v0c0.166-0.008 0.608-0.015 1.326-0.021 0.712-0.008 1.322-0.047 1.831-0.118v0c1.27-0.173 2.047-0.635 2.33-1.387v0l0.232-0.614c0.187-0.496 0.435-0.807 0.744-0.931 0.303-0.127 0.728-0.087 1.274 0.118v0c0.54 0.204 0.882 0.453 1.025 0.748 0.15 0.298 0.132 0.695-0.055 1.191v0l-0.681 1.806c-0.557 1.477-2.048 2.35-4.474 2.62v0c-0.87 0.09-2.036 0.147-3.499 0.17v0c-1.02-0.002-1.89 0.021-2.609 0.069-0.717 0.041-1.382 0.142-1.995 0.3v0c-0.627 0.16-1.175 0.457-1.643 0.89-0.464 0.442-0.823 0.998-1.076 1.668v0c-0.232 0.614-0.346 1.248-0.344 1.901 0.008 0.655 0.14 1.283 0.396 1.882v0l0.393 0.904 6.582 2.48 1.34-3.556c0.189-0.503 0.439-0.816 0.748-0.94 0.303-0.127 0.728-0.087 1.274 0.118v0c0.54 0.204 0.882 0.453 1.026 0.748 0.15 0.298 0.13 0.698-0.059 1.201v0l-3.509 9.309c-0.187 0.496-0.435 0.807-0.745 0.931-0.303 0.127-0.724 0.088-1.264-0.115v0c-0.546-0.206-0.891-0.456-1.035-0.751-0.15-0.298-0.132-0.695 0.055-1.192v0l0.93-2.467-20.089-7.572-0.93 2.467c-0.187 0.496-0.435 0.807-0.744 0.931-0.303 0.127-0.728 0.087-1.274-0.118v0c-0.54-0.204-0.882-0.453-1.026-0.748-0.15-0.298-0.132-0.695 0.056-1.191v0l2.93-7.773c0.189-0.503 0.439-0.816 0.748-0.941 0.303-0.127 0.724-0.088 1.264 0.115v0c0.546 0.206 0.891 0.456 1.035 0.752 0.15 0.298 0.13 0.698-0.059 1.2v0l-0.761 2.02 9.421 3.551-5.793-13.177-0.597 1.583c-0.187 0.496-0.436 0.81-0.748 0.941-0.303 0.127-0.728 0.087-1.273-0.119v0c-0.54-0.204-0.882-0.453-1.026-0.748-0.148-0.304-0.128-0.704 0.059-1.2v0z" fill="#8789fe" data-fill-palette-color="primary"></path><path d="M52.377 40.227c2.172-1.978 4.247-2.975 6.224-2.99 1.973-0.02 3.828 0.923 5.565 2.83v0l6.29 6.907c0.831 0.912 1.626 1.022 2.386 0.33v0l0.61-0.556c0.392-0.357 0.754-0.521 1.086-0.491 0.332 0.02 0.695 0.246 1.089 0.678v0c0.389 0.427 0.577 0.806 0.566 1.139-0.002 0.333-0.198 0.679-0.591 1.036v0l-1.11 1.011c-0.75 0.683-1.567 1.082-2.451 1.195-0.879 0.119-1.732-0.114-2.559-0.697v0c-0.187 1.695-0.627 3.271-1.319 4.727-0.697 1.46-1.664 2.753-2.9 3.879v0c-1.167 1.063-2.38 1.804-3.64 2.224-1.264 0.415-2.499 0.472-3.705 0.172-1.202-0.296-2.283-0.971-3.243-2.025v0c-1.666-1.829-2.241-3.776-1.727-5.842 0.514-2.065 1.806-4.04 3.876-5.924v0c1.839-1.675 3.867-2.979 6.084-3.913v0l-1.346-1.478c-1.023-1.123-2.089-1.659-3.2-1.608-1.105 0.047-2.359 0.709-3.762 1.986v0c-0.868 0.79-1.661 1.732-2.378 2.826-0.713 1.098-1.298 2.245-1.753 3.439v0c-0.102 0.282-0.234 0.496-0.396 0.643v0c-0.383 0.348-0.954 0.361-1.713 0.04v0c-0.382-0.163-0.656-0.336-0.821-0.518v0c-0.371-0.407-0.441-0.917-0.21-1.53v0c0.507-1.394 1.194-2.733 2.061-4.017 0.868-1.293 1.863-2.45 2.987-3.473zM59.069 50.266c-1.329 1.21-2.171 2.394-2.525 3.551-0.355 1.157-0.079 2.233 0.828 3.229v0c0.768 0.843 1.658 1.235 2.67 1.174 1.008-0.066 2.039-0.578 3.093-1.539v0c2.3-2.094 3.508-4.939 3.625-8.534v0l-1.722-1.891c-1.022 0.464-2.042 1.038-3.059 1.723-1.023 0.689-1.993 1.451-2.91 2.287z" fill="#8789fe" data-fill-palette-color="primary"></path><path d="M107.803 1.803c0.511-0.141 0.908-0.124 1.191 0.052 0.281 0.17 0.499 0.536 0.655 1.099v0l6.923 25.057 7.269-2.008c0.511-0.141 0.908-0.124 1.191 0.052 0.281 0.17 0.499 0.536 0.655 1.099v0c0.154 0.556 0.154 0.979-0.001 1.27-0.152 0.297-0.484 0.516-0.995 0.657v0l-17.74 4.901c-0.511 0.141-0.908 0.124-1.191-0.052-0.281-0.17-0.498-0.533-0.652-1.09v0c-0.155-0.563-0.156-0.989-0.002-1.279 0.152-0.297 0.484-0.516 0.995-0.657v0l7.076-1.955-6.499-23.522-6.175 1.706c-0.511 0.141-0.908 0.124-1.192-0.053-0.281-0.17-0.498-0.533-0.652-1.089v0c-0.155-0.563-0.156-0.989-0.002-1.279 0.152-0.297 0.484-0.516 0.995-0.657v0z" fill="#8789fe" data-fill-palette-color="primary"></path><path d="M176.649 1.823c0.519 0.111 0.863 0.309 1.032 0.596 0.171 0.281 0.195 0.706 0.074 1.277v0l-5.417 25.425 7.375 1.571c0.519 0.111 0.863 0.309 1.033 0.597 0.171 0.281 0.195 0.706 0.073 1.277v0c-0.12 0.564-0.316 0.94-0.586 1.126-0.272 0.193-0.667 0.234-1.186 0.124v0l-18-3.836c-0.519-0.111-0.863-0.309-1.033-0.596-0.171-0.281-0.196-0.703-0.076-1.268v0c0.122-0.571 0.318-0.95 0.588-1.136 0.272-0.193 0.667-0.234 1.186-0.123v0l7.181 1.53 5.086-23.868-6.266-1.335c-0.519-0.111-0.863-0.309-1.033-0.597-0.171-0.281-0.196-0.703-0.076-1.267v0c0.122-0.571 0.318-0.95 0.588-1.136 0.272-0.193 0.667-0.234 1.186-0.124v0z" fill="#8789fe" data-fill-palette-color="primary"></path><path d="M228.028 61.962c0.409 0.349 0.619 0.69 0.631 1.023 0.016 0.328-0.165 0.714-0.544 1.157v0c-0.375 0.439-0.725 0.676-1.052 0.711-0.331 0.04-0.701-0.114-1.109-0.463v0l-5.78-4.935c-0.404-0.345-0.611-0.683-0.624-1.016-0.021-0.332 0.155-0.718 0.53-1.157v0c0.379-0.444 0.734-0.681 1.066-0.712 0.331-0.04 0.698 0.112 1.101 0.456v0l1.287 1.099 0.062-9.144-5.687 0.089-2.1 2.459 1.301 1.111c0.404 0.345 0.611 0.683 0.624 1.016 0.016 0.328-0.165 0.714-0.544 1.158v0c-0.375 0.439-0.725 0.676-1.052 0.711-0.331 0.04-0.698-0.112-1.101-0.456v0l-5.962-5.091c-0.404-0.345-0.614-0.685-0.631-1.023-0.016-0.328 0.163-0.711 0.537-1.15v0c0.379-0.444 0.732-0.683 1.058-0.718 0.336-0.036 0.706 0.118 1.109 0.463v0l1.983 1.692 15.846-18.559-2.338-1.996c-0.409-0.349-0.619-0.69-0.631-1.023-0.016-0.328 0.163-0.711 0.538-1.15v0c0.379-0.444 0.732-0.683 1.058-0.719 0.331-0.04 0.701 0.114 1.109 0.463v0l3.889 3.321c0.404 0.345 0.611 0.683 0.623 1.016 0.021 0.332-0.157 0.72-0.536 1.164v0l-12.067 14.133 11.917-0.198-1.264-1.079c-0.404-0.345-0.616-0.683-0.637-1.015-0.012-0.333 0.169-0.719 0.543-1.158v0c0.375-0.439 0.727-0.678 1.059-0.719 0.336-0.036 0.706 0.118 1.109 0.463v0l5.962 5.091c0.404 0.345 0.611 0.683 0.623 1.016 0.012 0.333-0.169 0.719-0.544 1.158v0c-0.375 0.439-0.727 0.678-1.058 0.718-0.327 0.035-0.692-0.12-1.095-0.464v0l-1.059-0.904-9.19 0.146 0.011 12.136z" fill="#8789fe" data-fill-palette-color="primary"></path><path d="M269.023 93.05c1.119 2.717 1.349 5.007 0.69 6.872-0.653 1.862-2.172 3.284-4.558 4.266v0l-8.637 3.56c-1.141 0.47-1.515 1.18-1.123 2.13v0l0.314 0.764c0.202 0.491 0.233 0.887 0.092 1.189-0.132 0.306-0.468 0.57-1.008 0.792v0c-0.533 0.22-0.955 0.268-1.264 0.144-0.313-0.115-0.57-0.418-0.772-0.908v0l-0.573-1.389c-0.387-0.938-0.483-1.842-0.288-2.711 0.188-0.867 0.697-1.589 1.527-2.169v0c-1.53-0.754-2.862-1.705-3.994-2.851-1.135-1.153-2.021-2.503-2.658-4.048v0c-0.601-1.459-0.885-2.853-0.851-4.18 0.04-1.329 0.408-2.51 1.102-3.542 0.688-1.029 1.691-1.816 3.009-2.359v0c2.287-0.943 4.314-0.82 6.08 0.368 1.766 1.187 3.182 3.075 4.249 5.662v0c0.948 2.3 1.482 4.651 1.605 7.054v0l1.848-0.762c1.404-0.579 2.271-1.399 2.602-2.46 0.333-1.055 0.138-2.46-0.585-4.213v0c-0.447-1.085-1.062-2.152-1.845-3.2-0.789-1.045-1.668-1.985-2.636-2.819v0c-0.23-0.192-0.386-0.39-0.47-0.592v0c-0.197-0.478-0.015-1.02 0.546-1.624v0c0.284-0.303 0.539-0.502 0.766-0.596v0c0.509-0.21 1.013-0.102 1.511 0.325v0c1.138 0.951 2.163 2.054 3.074 3.306 0.92 1.257 1.669 2.587 2.247 3.991zM257.305 95.921c-0.685-1.662-1.511-2.857-2.478-3.584-0.967-0.728-2.073-0.835-3.318-0.322v0c-1.055 0.435-1.726 1.138-2.014 2.11-0.282 0.97-0.151 2.114 0.392 3.432v0c1.185 2.876 3.448 4.981 6.789 6.317v0l2.364-0.974c-0.088-1.119-0.28-2.273-0.578-3.464-0.299-1.197-0.685-2.368-1.157-3.515z" fill="#8789fe" data-fill-palette-color="primary"></path><path d="M13.303 143.355c0-1.949 1.58-3.529 3.529-3.529 1.949 0 3.529 1.58 3.529 3.529 0 1.949-1.58 3.529-3.529 3.529-1.949 0-3.529-1.58-3.529-3.529z" fill="#8789fe" data-fill-palette-color="primary"></path><path d="M264.011 143.355c0-1.949 1.58-3.529 3.529-3.529 1.949 0 3.529 1.58 3.528 3.529 0 1.949-1.58 3.529-3.528 3.529-1.949 0-3.529-1.58-3.529-3.529z" fill="#8789fe" data-fill-palette-color="primary"></path></g><g id="text-1"><path d="M48.766 195.591c0.214 0.55 0.243 0.991 0.087 1.322-0.164 0.327-0.543 0.607-1.136 0.837v0c-0.599 0.233-1.067 0.284-1.404 0.152-0.345-0.136-0.624-0.479-0.838-1.029v0l-0.574-1.474-13.733-6.31c0.067 0.116 0.151 0.304 0.252 0.564v0c0.823 2.114 0.673 4.112-0.452 5.994v0c-0.448 0.751-1 1.471-1.656 2.161-0.663 0.692-1.509 1.499-2.538 2.42v0c-0.134 0.131-0.493 0.462-1.075 0.995-0.582 0.533-1.058 1.021-1.427 1.463v0c-0.913 1.074-1.209 2.022-0.889 2.845v0l0.264 0.676c0.214 0.55 0.24 0.992 0.078 1.326-0.156 0.331-0.533 0.613-1.132 0.847v0c-0.593 0.231-1.062 0.279-1.408 0.142-0.339-0.139-0.615-0.483-0.829-1.033v0l-0.769-1.974c-0.635-1.632-0.057-3.455 1.734-5.47v0c0.653-0.717 1.574-1.624 2.763-2.72v0c0.838-0.754 1.535-1.413 2.091-1.978 0.559-0.574 1.033-1.15 1.42-1.728v0c0.395-0.595 0.622-1.246 0.681-1.952 0.062-0.7-0.052-1.421-0.341-2.162v0c-0.262-0.674-0.637-1.279-1.123-1.816-0.487-0.536-1.059-0.954-1.716-1.253v0l-0.977-0.452-7.249 2.823 1.523 3.912c0.214 0.55 0.24 0.992 0.079 1.326-0.156 0.331-0.533 0.613-1.133 0.846v0c-0.593 0.231-1.062 0.279-1.407 0.143-0.339-0.139-0.615-0.483-0.83-1.033v0l-3.989-10.244c-0.214-0.55-0.243-0.991-0.088-1.321 0.164-0.327 0.543-0.607 1.136-0.838v0c0.599-0.233 1.067-0.284 1.404-0.152 0.345 0.136 0.624 0.479 0.838 1.03v0l1.055 2.707 22.109-8.612-1.054-2.707c-0.214-0.55-0.24-0.992-0.079-1.325 0.158-0.325 0.537-0.604 1.137-0.838v0c0.593-0.231 1.061-0.282 1.403-0.152 0.339 0.139 0.615 0.483 0.83 1.033v0l3.332 8.557c0.214 0.55 0.242 0.988 0.085 1.312-0.162 0.334-0.54 0.616-1.133 0.847v0c-0.599 0.233-1.069 0.281-1.407 0.143-0.342-0.13-0.621-0.47-0.835-1.02v0l-0.867-2.225-10.364 4.036 14.487 6.55-0.678-1.743c-0.212-0.544-0.237-0.983-0.075-1.316 0.156-0.331 0.533-0.613 1.133-0.847v0c0.593-0.231 1.062-0.279 1.407-0.142 0.339 0.139 0.614 0.48 0.825 1.024v0z" fill="#8789fe" data-fill-palette-color="primary"></path><path d="M69.209 229.264c2.419 2.18 3.746 4.353 3.981 6.52 0.235 2.167-0.605 4.312-2.518 6.435v0l-6.906 7.664c-0.915 1.015-0.948 1.904-0.101 2.668v0l0.672 0.606c0.439 0.395 0.66 0.778 0.666 1.149 0.005 0.361-0.208 0.781-0.639 1.259v0c-0.426 0.473-0.822 0.728-1.186 0.766-0.365 0.028-0.766-0.155-1.205-0.55v0l-1.234-1.112c-0.833-0.75-1.358-1.604-1.577-2.56-0.228-0.956-0.065-1.92 0.49-2.892v0c-1.889-0.024-3.673-0.337-5.353-0.941-1.675-0.608-3.2-1.531-4.575-2.77v0c-1.296-1.168-2.242-2.422-2.837-3.762-0.601-1.345-0.8-2.694-0.598-4.047 0.197-1.358 0.822-2.621 1.874-3.789v0c1.829-2.03 3.908-2.875 6.236-2.536 2.323 0.335 4.635 1.539 6.937 3.613v0c2.045 1.843 3.703 3.931 4.974 6.264v0l1.472-1.634c1.123-1.247 1.599-2.478 1.428-3.694-0.176-1.221-1.04-2.531-2.592-3.93v0c-0.966-0.87-2.09-1.638-3.374-2.304-1.284-0.666-2.607-1.184-3.969-1.555v0c-0.328-0.082-0.581-0.202-0.759-0.362v0c-0.424-0.382-0.501-1.009-0.232-1.883v0c0.142-0.435 0.306-0.756 0.493-0.962v0c0.404-0.448 0.951-0.58 1.642-0.396v0c1.59 0.406 3.141 1.018 4.653 1.836 1.512 0.809 2.891 1.775 4.137 2.899zM58.907 237.724c-1.478-1.332-2.874-2.131-4.189-2.395-1.31-0.261-2.462 0.161-3.457 1.264v0c-0.848 0.941-1.18 1.963-0.995 3.067 0.175 1.104 0.849 2.184 2.021 3.241v0c2.552 2.3 5.815 3.316 9.788 3.048v0l1.891-2.099c-0.624-1.071-1.369-2.131-2.236-3.18-0.867-1.049-1.808-2.031-2.823-2.946z" fill="#8789fe" data-fill-palette-color="primary"></path><path d="M119.388 244.436c0.562 0.156 0.93 0.395 1.102 0.718 0.17 0.329 0.17 0.801 0.001 1.414v0l-7.675 27.698 8.024 2.223c0.569 0.158 0.935 0.4 1.1 0.728 0.172 0.323 0.172 0.794 0 1.415v0c-0.17 0.614-0.413 1.018-0.728 1.212-0.307 0.19-0.745 0.206-1.315 0.049v0l-19.596-5.43c-0.569-0.158-0.939-0.398-1.111-0.721-0.164-0.328-0.161-0.798 0.009-1.412v0c0.172-0.62 0.411-1.025 0.719-1.215 0.315-0.195 0.758-0.213 1.326-0.056v0l7.823 2.168 7.202-25.991-6.826-1.891c-0.569-0.158-0.935-0.4-1.099-0.728-0.172-0.323-0.172-0.794-0.001-1.415v0c0.17-0.614 0.413-1.018 0.729-1.212 0.307-0.19 0.745-0.206 1.314-0.049v0z" fill="#8789fe" data-fill-palette-color="primary"></path><path d="M167.773 243.76c0.572-0.118 1.008-0.073 1.309 0.135 0.302 0.215 0.518 0.634 0.646 1.258v0l5.834 28.144 8.153-1.69c0.578-0.12 1.015-0.071 1.31 0.145 0.301 0.209 0.516 0.628 0.647 1.257v0c0.129 0.623 0.098 1.094-0.093 1.412-0.186 0.31-0.569 0.524-1.147 0.644v0l-19.912 4.127c-0.578 0.12-1.017 0.075-1.318-0.133-0.295-0.216-0.508-0.636-0.637-1.26v0c-0.131-0.63-0.103-1.1 0.084-1.41 0.192-0.317 0.576-0.536 1.155-0.655v0l7.949-1.648-5.474-26.409-6.936 1.437c-0.578 0.12-1.015 0.071-1.31-0.145-0.301-0.209-0.516-0.628-0.647-1.257v0c-0.129-0.623-0.098-1.094 0.093-1.412 0.186-0.31 0.569-0.524 1.147-0.644v0z" fill="#8789fe" data-fill-palette-color="primary"></path><path d="M238.639 236.825c0.447-0.375 0.855-0.54 1.223-0.493 0.364 0.041 0.752 0.308 1.165 0.801v0c0.409 0.488 0.605 0.917 0.587 1.287-0.023 0.365-0.257 0.735-0.705 1.11v0l-6.44 5.404c-0.452 0.379-0.86 0.548-1.223 0.507-0.363-0.051-0.749-0.32-1.158-0.808v0c-0.414-0.493-0.612-0.92-0.594-1.28 0.018-0.37 0.254-0.745 0.705-1.125v0l1.433-1.202-9.96-1.733-0.94 6.216 2.296 2.736 1.448-1.215c0.452-0.379 0.86-0.544 1.222-0.493 0.364 0.041 0.752 0.308 1.166 0.801v0c0.409 0.488 0.605 0.917 0.586 1.287-0.017 0.361-0.252 0.731-0.704 1.111v0l-6.638 5.57c-0.452 0.379-0.858 0.546-1.217 0.5-0.368-0.046-0.756-0.313-1.165-0.801v0c-0.414-0.493-0.609-0.922-0.587-1.287 0.013-0.366 0.246-0.739 0.699-1.118v0l2.21-1.854-17.336-20.662-2.606 2.187c-0.452 0.379-0.86 0.544-1.223 0.493-0.364-0.041-0.752-0.308-1.165-0.801v0c-0.409-0.488-0.605-0.917-0.587-1.287 0.017-0.361 0.252-0.731 0.705-1.111v0l4.329-3.632c0.452-0.379 0.86-0.548 1.224-0.507 0.368 0.046 0.756 0.313 1.165 0.801v0l13.205 15.738 1.966-13.026-1.41 1.183c-0.452 0.379-0.86 0.548-1.224 0.508-0.359-0.045-0.745-0.315-1.158-0.808v0c-0.409-0.488-0.607-0.915-0.594-1.281 0.023-0.365 0.26-0.738 0.713-1.117v0l6.638-5.569c0.447-0.375 0.852-0.542 1.216-0.501 0.368 0.046 0.756 0.313 1.165 0.801v0c0.414 0.493 0.609 0.922 0.587 1.287-0.023 0.365-0.257 0.735-0.705 1.111v0l-1.173 0.985-1.523 10.056 13.224 2.203z" fill="#8789fe" data-fill-palette-color="primary"></path><path d="M246.312 185.728c1.283-2.993 2.913-4.95 4.887-5.871 1.975-0.921 4.277-0.818 6.904 0.308v0l9.482 4.066c1.256 0.538 2.108 0.283 2.558-0.765v0l0.357-0.832c0.233-0.543 0.524-0.876 0.872-1.001 0.341-0.121 0.806-0.055 1.398 0.199v0c0.585 0.251 0.954 0.543 1.108 0.875 0.145 0.336 0.1 0.776-0.132 1.318v0l-0.655 1.527c-0.442 1.03-1.08 1.803-1.914 2.319-0.831 0.524-1.796 0.68-2.896 0.468v0c0.587 1.796 0.866 3.586 0.836 5.371-0.035 1.782-0.417 3.523-1.146 5.223v0c-0.687 1.603-1.569 2.903-2.646 3.899-1.079 1.002-2.292 1.626-3.639 1.872-1.349 0.251-2.746 0.068-4.19-0.552v0c-2.511-1.077-3.982-2.772-4.412-5.085-0.432-2.307-0.038-4.884 1.182-7.731v0c1.085-2.53 2.526-4.773 4.325-6.729v0l-2.021-0.866c-1.542-0.661-2.862-0.715-3.958-0.16-1.099 0.561-2.06 1.801-2.883 3.721v0c-0.512 1.195-0.876 2.507-1.093 3.937-0.216 1.43-0.28 2.849-0.191 4.258v0c0.029 0.337-0.004 0.615-0.099 0.835v0c-0.225 0.524-0.794 0.8-1.707 0.827v0c-0.457 0.006-0.814-0.046-1.07-0.156v0c-0.555-0.238-0.856-0.713-0.904-1.427v0c-0.129-1.636-0.05-3.301 0.238-4.996 0.278-1.692 0.748-3.309 1.409-4.852zM257.643 192.752c-0.784 1.829-1.09 3.408-0.917 4.737 0.176 1.324 0.946 2.278 2.312 2.864v0c1.164 0.499 2.239 0.484 3.224-0.046 0.989-0.521 1.794-1.508 2.416-2.959v0c1.354-3.158 1.263-6.574-0.272-10.248v0l-2.596-1.113c-0.813 0.936-1.576 1.984-2.29 3.142-0.713 1.159-1.339 2.366-1.877 3.623z" fill="#8789fe" data-fill-palette-color="primary"></path></g></svg></g></svg></g></svg></g><g></g></svg></g><defs></defs></svg><rect width="280" height="280" fill="none" stroke="none" visibility="hidden"></rect></g></svg></g></svg>